<?xml version="1.0" encoding="UTF-8" standalone="no"?>
<!DOCTYPE svg PUBLIC "-//W3C//DTD SVG 1.1//EN" "http://www.w3.org/Graphics/SVG/1.1/DTD/svg11.dtd">
<!-- Created with Vectornator (http://vectornator.io/) -->
<svg height="177.73177583780762pt" stroke-miterlimit="10" style="fill-rule:nonzero;clip-rule:evenodd;stroke-linecap:round;stroke-linejoin:round;" version="1.1" viewBox="0 0 169.678 177.732" width="169.67765903727445pt" xml:space="preserve" xmlns="http://www.w3.org/2000/svg" xmlns:vectornator="http://vectornator.io" xmlns:xlink="http://www.w3.org/1999/xlink">
<defs/>
<g id="Layer-1" vectornator:layerName="Layer 1">
<path d="M77.7066 48.1128C71.4766 37.0672 81.5836 48.1651 82.0134 47.9503C82.9339 47.49 79.9953 38.3296 79.7381 37.3866C79.4361 36.2791 77.9118 33.2179 78.6005 34.1362C79.6618 35.5513 87.4641 46.6841 89.3267 45.8375C90.2866 45.4012 92.4123 38.3205 94.5272 38.8492C96.1316 39.2503 91.5548 43.3495 96.8025 42.9122C97.2504 42.8749 101.875 41.8429 102.166 42.4246C102.269 42.6314 98.0638 45.2821 98.1026 45.35C98.8916 46.7307 104.476 44.1755 105.416 45.35C107.378 47.8029 97.6352 47.9704 100.703 51.0381C102.078 52.413 112.744 61.4157 114.679 62.5769C117.356 64.1826 120.627 62.9468 123.618 65.3397C124.431 65.9897 126.125 66.2516 126.056 67.2899C125.871 70.0616 120.161 68.5469 121.83 71.5153C123.541 74.5564 129.22 76.8565 130.444 79.4787C131.457 81.6495 128.014 81.6932 127.843 83.0541C127.679 84.3662 133.269 88.9803 133.044 89.3923C132.155 91.0217 126.448 90.3277 125.893 91.9926C124.932 94.8756 136.852 99.9674 136.619 103.694C136.438 106.589 127.064 105.371 125.731 106.294C123.514 107.829 130.415 114.112 129.306 114.745C128.502 115.205 124.806 112.445 123.13 113.282C119.516 115.089 126.997 120.373 125.081 121.571C124.28 122.071 121.847 119.558 120.53 119.946C116.954 120.997 122.235 125.312 121.505 127.259C120.387 130.242 118.771 125.577 117.442 128.234C116.752 129.614 118.917 138.15 115.98 137.498C113.659 136.982 112.459 128.953 109.641 129.209C106.707 129.476 109.691 141.818 106.391 142.698C103.239 143.539 102.192 136.178 98.9152 136.522C96.1711 136.811 96.5138 140.441 94.5272 141.236C91.0269 142.636 89.8144 135.71 87.539 135.71C83.752 135.71 89.2313 138.028 86.5639 138.473C85.4242 138.663 80.8794 130.4 78.9255 130.834C77.9351 131.054 79.0541 137.781 78.6005 137.823C76.9877 137.969 73.5248 131.503 71.6122 132.46C71.1322 132.7 73.0548 137.026 72.9124 137.01C71.2429 136.825 67.0826 130.889 65.1115 131.647C63.6313 132.216 66.0473 136.36 64.4614 136.36C62.6795 136.36 63.6833 132.79 62.6737 131.322C62.1472 130.556 58.6251 127.742 57.6357 128.072C56.6221 128.409 56.0105 131.903 56.0105 130.834C56.0105 129.484 60.8186 124.451 58.9358 123.196C56.0961 121.303 48.6972 123.196 48.6972 123.196C48.6972 123.196 56.2796 118.735 54.7104 116.045C54.1854 115.145 46.5845 116.794 46.5845 116.208C46.5845 114.748 54.1283 113.782 52.9227 111.17C51.7888 108.713 45.3191 112.021 43.9842 110.52C42.6157 108.98 54.7676 100.191 53.2477 96.5431C52.6054 95.0016 43.3776 92.5618 45.1218 90.0424C46.15 88.5572 54.4582 88.2155 53.7353 84.8418C53.5313 83.8899 47.1442 81.7721 47.7221 80.6163C48.7497 78.5612 56.7755 81.7224 57.4732 79.8038C58.0725 78.1555 53.0445 77.2207 52.4351 75.7408C50.7343 71.6103 59.8557 75.5935 58.4483 71.8404C57.8405 70.2196 52.7263 70.0728 52.5976 68.9151C52.421 67.3257 61.2111 68.7752 61.2111 65.3397C61.2111 63.0317 55.4439 64.5674 54.7104 61.9268C54.1096 59.7642 59.5436 57.4167 60.9141 56.6939C64.9481 54.5662 80.8722 53.7251 77.7066 48.1128Z" fill="#942c87" fill-rule="nonzero" opacity="1" stroke="#942c87" stroke-linecap="round" stroke-linejoin="round" stroke-width="2.76533" vectornator:layerName="Head"/>
<g opacity="1" vectornator:layerName="Left horn">
<path d="M76.6385 50.81C78.3328 42.4064 66.779 43.3053 62.6625 34.6633C60.6317 30.4002 62.6585 17.7747 55.6978 16.4707C53.633 16.0839 51.3891 25.5592 51.403 27.4877C51.4698 36.756 51.1257 51.3088 59.1786 57.5072C59.1786 57.5072 61.3209 61.2134 69.1092 57.5072C76.8975 53.8009 76.4128 51.9296 76.6385 50.81Z" fill="#ffeba1" fill-rule="nonzero" opacity="1" stroke="#ffd335" stroke-linecap="round" stroke-linejoin="round" stroke-width="2.76533" vectornator:layerName="Curve 10"/>
<path d="M53.4027 28.0579C55.8824 28.1052 58.8137 29.6677 60.5105 26.9584" fill="#ffeba1" fill-rule="nonzero" opacity="1" stroke="#ffd335" stroke-linecap="round" stroke-linejoin="round" stroke-width="2.76533" vectornator:layerName="Curve 11"/>
<path d="M52.1717 38.0994C55.5635 38.9214 58.8956 38.5776 61.6884 36.5652" fill="#ffeba1" fill-rule="nonzero" opacity="1" stroke="#ffd335" stroke-linecap="round" stroke-linejoin="round" stroke-width="2.76533" vectornator:layerName="Curve 12"/>
<path d="M54.8502 48.9129C58.5584 46.85 63.4446 44.2196 66.6819 41.3671" fill="#ffeba1" fill-rule="nonzero" opacity="1" stroke="#ffd335" stroke-linecap="round" stroke-linejoin="round" stroke-width="2.76533" vectornator:layerName="Curve 13"/>
<path d="M60.9141 56.6939C65.5425 53.3653 68.823 48.4745 72.8392 44.7872" fill="#ffeba1" fill-rule="nonzero" opacity="1" stroke="#ffd335" stroke-linecap="round" stroke-linejoin="round" stroke-width="2.76533" vectornator:layerName="Curve 14"/>
</g>
<g opacity="1" vectornator:layerName="Right horn">
<path d="M104.716 54.5594C105.222 53.5528 114.081 45.9053 116.111 42.3675C122.356 31.4825 122.451 15.8926 129.518 19.4085C132.835 21.059 132.644 55.3242 129.67 59.1371C126.977 62.5878 126.163 63.4998 118.963 65.3621C111.762 67.2244 102.653 58.6629 104.716 54.5594Z" fill="#ffeba1" fill-rule="nonzero" opacity="1" stroke="#ffd335" stroke-linecap="round" stroke-linejoin="round" stroke-width="2.76533" vectornator:layerName="Curve 9"/>
<path d="M120.714 30.7337C123.128 30.9831 128.174 34.9166 130.343 33.7516" fill="#ffeba1" fill-rule="nonzero" opacity="1" stroke="#ffd335" stroke-linecap="round" stroke-linejoin="round" stroke-width="2.76533" vectornator:layerName="Curve 15"/>
<path d="M118.436 37.8068C122.193 38.292 128.106 42.8823 131.953 42.4234" fill="#ffeba1" fill-rule="nonzero" opacity="1" stroke="#ffd335" stroke-linecap="round" stroke-linejoin="round" stroke-width="2.76533" vectornator:layerName="Curve 16"/>
<path d="M115.348 45.3148C119.056 48.6937 124.085 51.8544 130.343 53.0087" fill="#ffeba1" fill-rule="nonzero" opacity="1" stroke="#ffd335" stroke-linecap="round" stroke-linejoin="round" stroke-width="2.76533" vectornator:layerName="Curve 17"/>
<path d="M110.106 49.5054C113.997 54.5588 119.535 59.7943 125.539 62.1992" fill="#ffeba1" fill-rule="nonzero" opacity="1" stroke="#ffd335" stroke-linecap="round" stroke-linejoin="round" stroke-width="2.76533" vectornator:layerName="Curve 18"/>
</g>
<path d="M47.2848 102.497L27.9807 91.1177L13.4199 87.5052L27.9807 91.1177L19.9581 79.8759L27.9807 91.1177L27.4945 76.6838L27.9807 91.1177L34.1632 79.623L36.523 75.2356" fill="none" opacity="1" stroke="#ff6600" stroke-linecap="round" stroke-linejoin="round" stroke-width="2.76533" vectornator:layerName="Left arm"/>
<path d="M132.387 95.4983L135.945 93.4234L144.161 88.6213C144.165 88.6188 144.168 88.6141 144.167 88.6093L142.323 75.2356L144.168 88.6172L147.782 77.8468L144.168 88.6172L153.413 82.8031C153.426 82.795 153.415 82.7753 153.401 82.7825L145.764 86.812C145.755 86.8169 145.756 86.8303 145.766 86.8338L155.42 90.2873" fill="none" opacity="1" stroke="#ff6600" stroke-linecap="round" stroke-linejoin="round" stroke-width="2.76533" vectornator:layerName="Right arm"/>
<g opacity="1" vectornator:layerName="Left foot">
<path d="M72.8392 138.44C71.5526 140.943 73.7564 153.212 71.9518 154.186C68.5919 155.999 58.423 152.547 54.4495 151.884" fill="none" opacity="1" stroke="#ff6600" stroke-linecap="round" stroke-linejoin="round" stroke-width="2.76533" vectornator:layerName="Curve 20"/>
<path d="M69.1092 155.348C63.9992 155.632 58.5403 156.564 53.7099 158.175" fill="#6b1b61" fill-opacity="0.5" fill-rule="nonzero" opacity="1" stroke="#ff6600" stroke-linecap="round" stroke-linejoin="round" stroke-width="2.76533" vectornator:layerName="Curve 21"/>
<path d="M71.9518 154.083C68.4944 156.286 64.0882 160.278 60.5137 162.415" fill="#6b1b61" fill-opacity="0.5" fill-rule="nonzero" opacity="1" stroke="#ff6600" stroke-linecap="round" stroke-linejoin="round" stroke-width="2.76533" vectornator:layerName="Curve 22"/>
</g>
<g opacity="1" vectornator:layerName="Right foot">
<path d="M99.1186 139.261C99.1186 159.915 103.852 152.016 116.942 163.236" fill="none" opacity="1" stroke="#ff6600" stroke-linecap="round" stroke-linejoin="round" stroke-width="2.76533" vectornator:layerName="Curve 23"/>
<path d="M103.76 152.482C109.668 152.482 117.047 154.389 121.972 157.836" fill="none" opacity="1" stroke="#ff6600" stroke-linecap="round" stroke-linejoin="round" stroke-width="2.76533" vectornator:layerName="Curve 24"/>
<path d="M105.967 152.663C110.949 153.046 117.776 149.235 122.626 147.78" fill="none" opacity="1" stroke="#ff6600" stroke-linecap="round" stroke-linejoin="round" stroke-width="2.76533" vectornator:layerName="Curve 25"/>
</g>
<g opacity="1" vectornator:layerName="Eye">
<path d="M85.8202 61.3943C84.8528 61.3926 83.8417 61.5017 82.7889 61.738C77.1233 63.0097 73.3116 66.6471 72.1327 72.7068C70.4383 81.4159 77.8362 90.3547 86.9764 88.9255C98.6221 87.1046 104.708 71.8458 94.0389 64.363C91.327 62.461 88.7221 61.3994 85.8202 61.3943Z" fill="#ffffff" fill-rule="nonzero" opacity="1" stroke="#000000" stroke-linecap="round" stroke-linejoin="round" stroke-width="2.76533" vectornator:layerName="Curve 28"/>
<path d="M89.9139 69.3005C89.1864 69.226 88.4548 69.2889 87.8514 69.488C86.9292 69.7922 87.6651 71.8427 87.3827 72.7693C86.9909 74.0541 85.135 74.2738 84.8514 75.3943C84.6569 76.1631 85.7885 77.2452 86.1952 77.6755C87.6733 79.239 90.0343 79.4245 91.9764 78.5818C94.3242 77.5628 92.6195 76.9474 92.9764 75.5505C93.2267 74.571 94.3745 74.5812 94.3827 73.3943C94.3993 70.9518 92.0964 69.5239 89.9139 69.3005Z" fill="#000000" fill-rule="nonzero" opacity="1" stroke="none" vectornator:layerName="Curve 30"/>
</g>
<g opacity="1" vectornator:layerName="Mouth">
<g opacity="1" vectornator:layerName="Group 6">
<path d="M64.4091 92.4421C64.4091 92.4421 70.132 106.266 81.8134 106.735C93.4948 107.203 106.037 94.0786 106.037 94.0786" fill="none" opacity="1" stroke="#000000" stroke-linecap="round" stroke-linejoin="round" stroke-width="2.76533" vectornator:layerName="Curve 7"/>
<path d="M66.174 98.0257C63.1485 107.537 63.6832 102.81 70.5633 102.81C72.2813 102.81 70.4847 111.245 71.03 111.572C71.4785 111.84 77.3244 105.497 78.8232 106.747C80.1334 107.84 80.1826 114.327 81.8688 114.832C84.3166 115.565 85.975 108.245 86.4414 107.686C89.6204 103.879 92.651 113.321 95.4549 112.353C96.5302 111.981 94.9251 104.414 95.289 103.543C97.2878 98.755 104.868 107.53 106.037 106.747C106.433 106.482 103.709 100.672 102.89 98.4655" fill="none" opacity="1" stroke="#000000" stroke-linecap="round" stroke-linejoin="round" stroke-width="2.76533" vectornator:layerName="Curve 8"/>
</g>
<path d="M59.9704 90.9745C59.9704 90.9745 62.1441 92.0876 63.649 91.4099C65.1539 90.7322 65.99 88.2638 65.99 88.2638" fill="none" opacity="1" stroke="#000000" stroke-linecap="butt" stroke-linejoin="round" stroke-width="2.76533" vectornator:layerName="Curve 31"/>
<path d="M105.547 88.2327C105.547 88.2327 104.649 92.202 106.037 94.0786C107.424 95.9553 111.098 95.7393 111.098 95.7393" fill="none" opacity="1" stroke="#000000" stroke-linecap="butt" stroke-linejoin="round" stroke-width="2.76533" vectornator:layerName="Curve 32"/>
</g>
</g>
</svg>
